<svg xmlns="http://www.w3.org/2000/svg" viewBox="0 0 691.2 691.2"><defs><style>.cls-1{fill:#002b99;}.cls-2{fill:#fc0;}</style></defs><g id="Layer_2" data-name="Layer 2"><g id="Layer_1-2" data-name="Layer 1"><circle class="cls-1" cx="345.6" cy="345.6" r="345.6"/><path class="cls-2" d="M269.55,386.09Q263,404.2,252.08,416.31a73.08,73.08,0,0,1-25.54,18.33,77.37,77.37,0,0,1-31.08,6.26,76.39,76.39,0,0,1-30.67-6.26,74,74,0,0,1-25.54-18.33q-10.94-12.09-17.43-30.22c-4.32-12.11-6.48-26-6.48-41.88s2.16-29.73,6.48-41.85,10.14-22.15,17.43-30.22a74,74,0,0,1,25.54-18.33,76.39,76.39,0,0,1,30.67-6.26,77.37,77.37,0,0,1,31.08,6.26,73.08,73.08,0,0,1,25.54,18.33q10.93,12.11,17.47,30.22c4.32,12.12,6.49,26,6.49,41.85S273.87,374,269.55,386.09Z"/><path class="cls-2" d="M428.65,254v75.11H545.82v69.09H428.65V503.32H195.46c23,0,44-5.87,63.1-13.3s35.49-19,49.23-32.4,24.41-30.2,32-49.3a164.28,164.28,0,0,0,11-52.37c.27-3.78.36-7.67.36-11.55s-.09-7.73-.36-11.47a163.34,163.34,0,0,0-11-52.17q-11.42-28.63-32-48.83a147.22,147.22,0,0,0-49.23-32.14,172.73,172.73,0,0,0-63.1-11.91h380.4V254Z"/></g></g></svg>